# xmcd
#
# Track frame offsets:
#	150
#	18759
#	37431
#	61300
#	79968
#	94365
#	111732
#	132228
#	148308
#	167089
#	182291
#	197405
#	217366
#	232417
#	246545
#	261910
#	278238
#	295877
#	314835
#	333642
#
# Disc length: 4697 seconds
#
# Revision: 0
# Processed by: cddbd v1.5.1PL0 Copyright (c) Steve Scherf et al.
# Submitted via: audiograbber 1.83.01
#
DISCID=55125714
DTITLE=Barry White - All Time Greatest
DYEAR=1900
DGENRE=R&B
TTITLE0=Love theme
TTITLE1=I'm gonna give you just a little more
TTITLE2=I've got so much to give
TTITLE3=Never, never gonna give you up
TTITLE4=Honey please, can't ya see
TTITLE5=Can't get enough of your love
TTITLE6=You're the first, the last, my everything
TTITLE7=What am I gonna do with you
TTITLE8=I'll do for you anything
TTITLE9=Let the music play
TTITLE10=You see the trouble
TTITLE11=We better try to get it together
TTITLE12=Don't make me wait
TTITLE13=I'm qualified to satisfy you
TTITLE14=It's extasy. when you lay down next to me
TTITLE15=Playing your game baby
TTITLE16=Oh, what a night for dancing
TTITLE17=Your sweetness is my weakness
TTITLE18=Just the way you are
TTITLE19=Satin soul
EXTD=
EXTT0=
EXTT1=
EXTT2=
EXTT3=
EXTT4=
EXTT5=
EXTT6=
EXTT7=
EXTT8=
EXTT9=
EXTT10=
EXTT11=
EXTT12=
EXTT13=
EXTT14=
EXTT15=
EXTT16=
EXTT17=
EXTT18=
EXTT19=
PLAYORDER=
